<?xml version="1.0" ?><svg style="enable-background:new 0 0 512 512;" version="1.1" viewBox="0 0 512 512" xml:space="preserve" xmlns="http://www.w3.org/2000/svg" xmlns:xlink="http://www.w3.org/1999/xlink"><g id="_x32_5_x5F_Water_Pollution"><g id="XMLID_736_"><g id="XMLID_750_"><g id="XMLID_777_"><linearGradient gradientTransform="matrix(0.7314 -0.682 0.682 0.7314 -17.8786 86.6125)" gradientUnits="userSpaceOnUse" id="XMLID_2_" x1="69.323" x2="132.677" y1="66" y2="66"><stop offset="0" style="stop-color:#CAD0DD"/><stop offset="1" style="stop-color:#FFFFFF"/></linearGradient><polygon id="XMLID_822_" points="121,41 121,91 81,91 81,41 101,41     " style="fill:url(#XMLID_2_);"/><linearGradient gradientTransform="matrix(0.7314 -0.682 0.682 0.7314 -30.4868 154.6047)" gradientUnits="userSpaceOnUse" id="XMLID_3_" x1="135.683" x2="226.317" y1="116" y2="116"><stop offset="0" style="stop-color:#6857C7"/><stop offset="1" style="stop-color:#AA99FF"/></linearGradient><polygon id="XMLID_818_" points="201,141.18 201,161 161,161 161,141 161,91 161,71 201,71       201,89.9     " style="fill:url(#XMLID_3_);"/><linearGradient gradientTransform="matrix(0.7314 -0.682 0.682 0.7314 -56.0082 89.8148)" gradientUnits="userSpaceOnUse" id="XMLID_4_" x1="14.0985" x2="157.9015" y1="116" y2="116"><stop offset="0" style="stop-color:#B3C9DD"/><stop offset="1" style="stop-color:#F5FFFF"/></linearGradient><polygon id="XMLID_817_" points="161,91 161,141 11,141 11,91 81,91 121,91     " style="fill:url(#XMLID_4_);"/><linearGradient gradientTransform="matrix(0.7314 -0.682 0.682 0.7314 -74.3329 238.8448)" gradientUnits="userSpaceOnUse" id="XMLID_5_" x1="192.4891" x2="344.2518" y1="207.756" y2="207.756"><stop offset="0" style="stop-color:#428EDE"/><stop offset="1" style="stop-color:#84D0FF"/></linearGradient><path d="M331,321l0.01,0.19c-24.85,1.48-32.86,11.2-50.01,16.46V221      c0-44.18-35.82-79.82-80-79.82V89.9c71.8,0,130,58.3,130,130.1V321z" id="XMLID_781_" style="fill:url(#XMLID_5_);"/><linearGradient gradientTransform="matrix(0.7314 -0.682 0.682 0.7314 -218.3479 287.6917)" gradientUnits="userSpaceOnUse" id="XMLID_6_" x1="63.1784" x2="462.4616" y1="413.6865" y2="413.6865"><stop offset="0" style="stop-color:#428EDE"/><stop offset="1" style="stop-color:#84D0FF"/></linearGradient><path d="M501,381v60c-40.84,0-40.84,20-81.67,20c-40.84,0-40.84-20-81.67-20      s-40.83,20-81.67,20c-40.83,0-40.83-20-81.66-20s-40.83,20-81.67,20c-40.83,0-40.83-20-81.66-20v-60c40.83,0,40.83,20,81.66,20      c40.84,0,40.84-20,81.67-20s40.83,20,81.66,20c40.84,0,40.84-20,81.67-20s40.83,20,81.67,20C460.16,401,460.16,381,501,381z" id="XMLID_780_" style="fill:url(#XMLID_6_);"/><linearGradient gradientTransform="matrix(0.7314 -0.682 0.682 0.7314 -252.4478 301.124)" gradientUnits="userSpaceOnUse" id="XMLID_7_" x1="56.3584" x2="455.6416" y1="471" y2="471"><stop offset="0" style="stop-color:#7DABDC"/><stop offset="1" style="stop-color:#BFEDFF"/></linearGradient><path d="M501,441v60H11v-60c40.83,0,40.83,20,81.66,20c40.84,0,40.84-20,81.67-20      s40.83,20,81.66,20c40.84,0,40.84-20,81.67-20s40.83,20,81.67,20C460.16,461,460.16,441,501,441z" id="XMLID_779_" style="fill:url(#XMLID_7_);"/><linearGradient gradientTransform="matrix(0.7314 -0.682 0.682 0.7314 -177.428 271.5729)" gradientUnits="userSpaceOnUse" id="XMLID_8_" x1="63.1784" x2="462.4616" y1="353.6865" y2="353.6865"><stop offset="0" style="stop-color:#7DABDC"/><stop offset="1" style="stop-color:#BFEDFF"/></linearGradient><path d="M281,337.65c17.15-5.26,25.16-14.98,50.01-16.46      c2.09-0.12,4.3-0.19,6.65-0.19c40.83,0,40.83,20,81.67,20c40.83,0,40.83-20,81.67-20v60c-40.84,0-40.84,20-81.67,20      c-40.84,0-40.84-20-81.67-20s-40.83,20-81.67,20c-40.83,0-40.83-20-81.66-20s-40.83,20-81.67,20c-40.83,0-40.83-20-81.66-20v-60      c40.83,0,40.83,20,81.66,20c40.84,0,40.84-20,81.67-20s40.83,20,81.66,20C266.61,341,274.47,339.65,281,337.65z" id="XMLID_778_" style="fill:url(#XMLID_8_);"/></g><g id="XMLID_764_"><g id="XMLID_776_"><path d="M419.33,411c-22.738,0-34.692-5.854-45.239-11.021c-9.838-4.818-18.334-8.979-36.431-8.979       s-26.593,4.161-36.431,8.979C290.683,405.146,278.729,411,255.99,411c-22.732,0-34.684-5.854-45.229-11.02       c-9.838-4.818-18.333-8.98-36.431-8.98c-18.096,0-26.593,4.161-36.431,8.979C127.353,405.146,115.398,411,92.66,411       c-22.732,0-34.684-5.854-45.229-11.02C37.593,395.162,29.098,391,11,391c-5.523,0-10-4.478-10-10s4.477-10,10-10       c22.733,0,34.685,5.854,45.229,11.02c9.838,4.818,18.334,8.98,36.431,8.98c18.104,0,26.602-4.162,36.442-8.981       C139.647,376.854,151.599,371,174.33,371c22.733,0,34.685,5.854,45.229,11.02c9.838,4.818,18.334,8.98,36.431,8.98       c18.104,0,26.602-4.162,36.442-8.981C302.978,376.854,314.929,371,337.66,371s34.683,5.854,45.228,11.019       c9.841,4.819,18.339,8.981,36.442,8.981c18.097,0,26.593-4.161,36.431-8.979C466.308,376.854,478.262,371,501,371       c5.522,0,10,4.478,10,10s-4.478,10-10,10c-18.104,0-26.602,4.162-36.442,8.981C454.013,405.146,442.062,411,419.33,411z" id="XMLID_394_"/></g><g id="XMLID_775_"><path d="M419.33,471c-22.738,0-34.692-5.854-45.239-11.021c-9.838-4.818-18.334-8.979-36.431-8.979       s-26.593,4.161-36.431,8.979C290.683,465.146,278.729,471,255.99,471c-22.732,0-34.684-5.854-45.229-11.02       c-9.838-4.818-18.333-8.98-36.431-8.98c-18.096,0-26.593,4.161-36.431,8.979C127.353,465.146,115.398,471,92.66,471       c-22.732,0-34.684-5.854-45.229-11.02C37.593,455.162,29.098,451,11,451c-5.523,0-10-4.478-10-10s4.477-10,10-10       c22.733,0,34.685,5.854,45.229,11.02c9.838,4.818,18.334,8.98,36.431,8.98c18.104,0,26.602-4.162,36.442-8.981       C139.647,436.854,151.599,431,174.33,431c22.733,0,34.685,5.854,45.229,11.02c9.838,4.818,18.334,8.98,36.431,8.98       c18.104,0,26.602-4.162,36.442-8.981C302.978,436.854,314.929,431,337.66,431s34.683,5.854,45.228,11.019       c9.841,4.819,18.339,8.981,36.442,8.981c18.097,0,26.593-4.161,36.431-8.979C466.308,436.854,478.262,431,501,431       c5.522,0,10,4.478,10,10s-4.478,10-10,10c-18.104,0-26.602,4.162-36.442,8.981C454.013,465.146,442.062,471,419.33,471z" id="XMLID_393_"/></g><g id="XMLID_774_"><path d="M501,511H11c-5.523,0-10-4.478-10-10V321c0-5.522,4.477-10,10-10c22.733,0,34.685,5.854,45.229,11.02       c9.838,4.818,18.334,8.98,36.431,8.98c18.104,0,26.602-4.162,36.442-8.981C139.647,316.854,151.599,311,174.33,311       c22.733,0,34.685,5.854,45.229,11.02c9.838,4.818,18.334,8.98,36.431,8.98c8.58,0,15.597-0.925,22.081-2.911       c5.268-1.616,9.681-3.778,14.354-6.067c9.314-4.563,19.872-9.734,37.99-10.813c2.409-0.139,4.84-0.208,7.245-0.208       c22.731,0,34.683,5.854,45.228,11.019c9.841,4.819,18.339,8.981,36.442,8.981c18.097,0,26.593-4.161,36.431-8.979       C466.308,316.854,478.262,311,501,311c5.522,0,10,4.478,10,10v180C511,506.522,506.522,511,501,511z M21,491h470V331.493       c-11.638,1.237-18.615,4.655-26.442,8.488C454.013,345.146,442.062,351,419.33,351c-22.738,0-34.692-5.854-45.239-11.021       c-9.838-4.818-18.334-8.979-36.431-8.979c-2.023,0-4.068,0.059-6.076,0.174c-14.093,0.839-21.631,4.532-30.36,8.809       c-5.165,2.53-10.507,5.147-17.291,7.229c-8.327,2.55-17.466,3.789-27.942,3.789c-22.732,0-34.684-5.854-45.229-11.02       c-9.838-4.818-18.333-8.98-36.431-8.98c-18.096,0-26.593,4.161-36.431,8.979C127.353,345.146,115.398,351,92.66,351       c-22.732,0-34.684-5.854-45.229-11.02c-7.824-3.832-14.8-7.249-26.431-8.487V491z" id="XMLID_390_"/></g><g id="XMLID_773_"><path d="M161,101h-40c-5.523,0-10-4.477-10-10s4.477-10,10-10h40c5.523,0,10,4.477,10,10S166.523,101,161,101z       " id="XMLID_389_"/></g><g id="XMLID_772_"><path d="M161,151H11c-5.523,0-10-4.477-10-10V91c0-5.523,4.477-10,10-10h70c5.523,0,10,4.477,10,10       s-4.477,10-10,10H21v30h140c5.523,0,10,4.477,10,10S166.523,151,161,151z" id="XMLID_388_"/></g><g id="XMLID_771_"><path d="M201,171h-40c-5.523,0-10-4.477-10-10V71c0-5.523,4.477-10,10-10h40c5.523,0,10,4.477,10,10v90       C211,166.523,206.523,171,201,171z M171,151h20V81h-20V151z" id="XMLID_385_"/></g><g id="XMLID_770_"><path d="M121,101H81c-5.523,0-10-4.477-10-10V41c0-5.523,4.477-10,10-10h40c5.523,0,10,4.477,10,10v50       C131,96.523,126.523,101,121,101z M91,81h20V51H91V81z" id="XMLID_382_"/></g><g id="XMLID_769_"><path d="M101,51c-5.523,0-10-4.477-10-10V21H61c-5.523,0-10-4.477-10-10S55.477,1,61,1h40       c5.523,0,10,4.477,10,10v30C111,46.523,106.523,51,101,51z" id="XMLID_381_"/></g><g id="XMLID_768_"><path d="M331,331c-5.522,0-10-4.478-10-10V220c0-66.224-53.832-120.1-120-120.1c-5.523,0-10-4.477-10-10       s4.477-10,10-10c77.196,0,140,62.849,140,140.1v101C341,326.522,336.522,331,331,331z" id="XMLID_380_"/></g><g id="XMLID_767_"><path d="M281,348c-5.522,0-10-4.478-10-10V221c0-38.499-31.402-69.82-70-69.82c-5.523,0-10-4.477-10-10       s4.477-10,10-10c49.626,0,90,40.293,90,89.82v117C291,343.522,286.522,348,281,348z" id="XMLID_378_"/></g></g></g></g></g><g id="Layer_1"/></svg>